# xmcd
#
# Track frame offsets:
#	150
#	14830
#	31947
#	48519
#	63930
#	79394
#	95794
#	110780
#	125485
#	140717
#	155822
#	171580
#	188759
#	208216
#	226624
#	241309
#	259534
#	276756
#	290926
#	305299
#
# Disc length: 4307 seconds
#
# Revision: 1
# Processed by: cddbd v1.5PL3 Copyright (c) Steve Scherf et al.
# Submitted via: audiograbber 1.83.01
#
DISCID=3610d114
DTITLE=сборник - Мега дискотека 3. (2001)
DYEAR=1900
DGENRE=
TTITLE0=John The Whistler. - Tell Me.
TTITLE1=Craig David. - Can't Be Messing 'Round.
TTITLE2=Baha Man. - Getting Hotter.
TTITLE3=Paradisio. - Samba Del Diablo. (Sunny Radio Rmx Edit)
TTITLE4=Fragma feat. Maria Rubia. - Everytime You Need Me.
TTITLE5=The Underdog Project. - For The Ladies.
TTITLE6=Wish 2K. - All Over.
TTITLE7=Justine. - You're My Sunshine.
TTITLE8=Bbmak. - Back Here.
TTITLE9=Sonat feat. Daniel Luory. - Can I Get A Freak.
TTITLE10=Woody Van Eyden feat. Grace. - Get Ready.
TTITLE11=V-Sion. - Johnny Come On. (Radio Gut)
TTITLE12=Kanyon. - Discolight. (Video Mix)
TTITLE13=Evelin. - Run To Me.
TTITLE14=Snook feat. Deep L. - I Just Can Move. (Beatride Radio Rmx)
TTITLE15=Funk Ho! - Drop The Lies.
TTITLE16=Lady Violet. - Beautiful World.
TTITLE17=Toy-Box. - The Sailor Song.
TTITLE18=Mythos 'N Dj Cosmo. - Send Me An Angel.
TTITLE19=Jamaica Soundsystem. - Life Is A Rollercoaster.
EXTD=
EXTT0=
EXTT1=
EXTT2=
EXTT3=
EXTT4=
EXTT5=
EXTT6=
EXTT7=
EXTT8=
EXTT9=
EXTT10=
EXTT11=
EXTT12=
EXTT13=
EXTT14=
EXTT15=
EXTT16=
EXTT17=
EXTT18=
EXTT19=
PLAYORDER=
